# xmcd
#
# Track frame offsets: 
#        150
#        17628
#        28127
#        39881
#        50852
#        71978
#        89015
#        101268
#        113145
#        124938
#        138310
#        151215
#        189824
#        193303
#        201588
#        213347
#        225448
#        239925
#        262239
#        274783
#        288387
#        304645
#        321812
#        337034
#
# Disc length: 4676 seconds
#
# Revision: 0
# Processed by: cddbd v1.5.2PL0 Copyright (c) Steve Scherf et al.
# Submitted via: ExactAudioCopy v0.99pb4
#
DISCID=74124218
DTITLE=Pale Creation - Before Twilight And After
DYEAR=2008
DGENRE=Hardcore
TTITLE0=Kaliira
TTITLE1=Silence Effervesce
TTITLE2=Manifest In Me
TTITLE3=Bleed The Soil
TTITLE4=Nightburned
TTITLE5=Trade A Soul
TTITLE6=Rage Contained
TTITLE7=Desperate Calm
TTITLE8=Twilight Haunt
TTITLE9=Heal
TTITLE10=Grief
TTITLE11=Soundtrack For The Dreamscape
TTITLE12=Crescent Opaque
TTITLE13=Terror Binds The Soul
TTITLE14=The Rest Of Forever
TTITLE15=Spark Set The Flame
TTITLE16=Pale Creation
TTITLE17=Misjudgement
TTITLE18=Natural Assassin
TTITLE19=Humanity
TTITLE20=Arlington
TTITLE21=Revolution Mind
TTITLE22=Weeping World
TTITLE23=All Are Defiled
EXTD=
EXTT0=
EXTT1=
EXTT2=
EXTT3=
EXTT4=
EXTT5=
EXTT6=
EXTT7=
EXTT8=
EXTT9=
EXTT10=
EXTT11=
EXTT12=
EXTT13=
EXTT14=
EXTT15=
EXTT16=
EXTT17=
EXTT18=
EXTT19=
EXTT20=
EXTT21=
EXTT22=
EXTT23=
PLAYORDER=
